<svg width="1438" height="500" viewBox="0 0 1438 500" fill="none" xmlns="http://www.w3.org/2000/svg">
<path d="M1438 499.199C1438 499.641 1436.68 500 1435.06 500L0.941513 500C-0.682202 500 -2 499.641 -2 499.199C-2 498.757 -0.682202 498.399 0.941513 498.399L1435.06 498.399C1436.68 498.399 1438 498.757 1438 499.199Z" fill="white" fill-opacity="0.08"/>
<path d="M28.4508 484.128L717.965 484.051L1407.48 484.089C1408.89 484.089 1410.04 484.4 1410.03 484.787C1410.02 485.175 1408.89 485.485 1407.48 485.482L717.965 485.559L28.4508 485.52C27.0389 485.52 25.8858 485.21 25.8976 484.822C25.8976 484.438 27.0389 484.124 28.4508 484.128Z" fill="white" fill-opacity="0.08"/>
<path d="M55.9598 469.853L717.93 469.709L1379.9 469.783C1381.11 469.783 1382.1 470.052 1382.1 470.381C1382.1 470.711 1381.11 470.98 1379.9 470.98L717.93 471.124L55.9598 471.051C54.7479 471.051 53.7595 470.782 53.7595 470.452C53.7595 470.122 54.7479 469.853 55.9598 469.853Z" fill="white" fill-opacity="0.08"/>
<path d="M83.4689 455.569L400.682 455.441L717.894 455.361L1035.11 455.383L1352.32 455.457C1353.36 455.457 1354.19 455.684 1354.19 455.966C1354.19 456.248 1353.36 456.475 1352.32 456.475L1035.11 456.603L717.894 456.683L400.682 456.661L83.4689 456.587C82.4335 456.587 81.5981 456.36 81.5981 456.078C81.5981 455.796 82.4335 455.569 83.4689 455.569Z" fill="white" fill-opacity="0.08"/>
<path d="M110.978 441.278L262.701 441.166L414.424 441.115L717.871 441.016L1021.32 441.045L1173.04 441.061L1324.76 441.134C1325.63 441.134 1326.33 441.326 1326.33 441.563C1326.33 441.8 1325.63 441.989 1324.76 441.989L1173.04 442.101L1021.32 442.153L717.871 442.252L414.424 442.223L262.701 442.207L110.978 442.133C110.107 442.133 109.413 441.941 109.413 441.704C109.413 441.467 110.107 441.278 110.978 441.278Z" fill="white" fill-opacity="0.08"/>
<path d="M138.487 426.978L283.327 426.847L428.167 426.786L717.835 426.668L1007.5 426.696L1152.34 426.712L1297.18 426.796C1297.9 426.796 1298.48 426.953 1298.47 427.148C1298.47 427.34 1297.89 427.497 1297.18 427.497L1152.34 427.628L1007.5 427.689L717.835 427.807L428.167 427.779L283.327 427.763L138.487 427.679C137.769 427.679 137.192 427.523 137.192 427.327C137.192 427.135 137.769 426.978 138.475 426.978L138.487 426.978Z" fill="white" fill-opacity="0.08"/>
<path d="M165.995 412.675L303.941 412.531L441.886 412.46L717.788 412.322L993.69 412.348L1131.64 412.364L1269.58 412.454C1270.16 412.454 1270.62 412.582 1270.62 412.739C1270.62 412.896 1270.16 413.02 1269.58 413.02L1131.64 413.165L993.69 413.235L717.788 413.373L441.886 413.347L303.941 413.331L165.995 413.241C165.419 413.241 164.96 413.113 164.96 412.956C164.96 412.8 165.419 412.675 165.995 412.675Z" fill="white" fill-opacity="0.08"/>
<path d="M193.505 398.362L324.567 398.205L455.629 398.128L717.753 397.977L979.877 398L1110.94 398.013L1242 398.105C1242.45 398.105 1242.81 398.205 1242.81 398.326C1242.81 398.448 1242.45 398.547 1242 398.547L1110.94 398.704L979.877 398.781L717.753 398.932L455.629 398.909L324.567 398.896L193.505 398.803C193.058 398.803 192.693 398.704 192.693 398.582C192.693 398.461 193.058 398.362 193.505 398.362Z" fill="white" fill-opacity="0.08"/>
<path d="M221.014 384.043L345.193 383.876L469.372 383.793L717.729 383.629L966.087 383.645L1090.27 383.655L1214.45 383.748C1214.79 383.748 1215.06 383.822 1215.06 383.914C1215.06 384.007 1214.79 384.081 1214.45 384.081L1090.27 384.247L966.087 384.331L717.729 384.494L469.372 384.478L345.193 384.468L221.014 384.376C220.672 384.376 220.402 384.302 220.402 384.209C220.402 384.116 220.672 384.043 221.014 384.043Z" fill="white" fill-opacity="0.08"/>
<path d="M248.523 369.716L365.818 369.544L483.114 369.454L717.694 369.281L952.274 369.287L1069.57 369.294L1186.87 369.383C1187.11 369.383 1187.3 369.438 1187.3 369.502C1187.3 369.566 1187.1 369.62 1186.87 369.62L1069.58 369.793L952.286 369.883L717.706 370.056L483.126 370.05L365.83 370.043L248.534 369.953C248.287 369.953 248.099 369.899 248.099 369.835C248.099 369.771 248.299 369.716 248.534 369.716L248.523 369.716Z" fill="white" fill-opacity="0.08"/>
<path d="M276.031 355.381L386.432 355.208L496.833 355.115L717.647 354.936L938.46 354.936L1048.86 354.936L1159.26 355.019C1159.43 355.019 1159.56 355.054 1159.56 355.099C1159.56 355.144 1159.43 355.176 1159.27 355.179L1048.87 355.352L938.472 355.445L717.659 355.624L496.845 355.624L386.444 355.624L276.043 355.541C275.878 355.541 275.749 355.506 275.749 355.461C275.749 355.416 275.878 355.384 276.031 355.381Z" fill="white" fill-opacity="0.08"/>
<path d="M303.541 341.042L407.058 340.869L510.576 340.776L717.612 340.591L924.647 340.575L1028.16 340.568L1131.68 340.639C1131.78 340.639 1131.85 340.658 1131.85 340.684C1131.85 340.709 1131.78 340.728 1131.68 340.728L1028.16 340.901L924.647 340.994L717.612 341.18L510.576 341.196L407.058 341.202L303.541 341.132C303.447 341.132 303.376 341.113 303.376 341.087C303.376 341.061 303.447 341.042 303.541 341.042Z" fill="white" fill-opacity="0.08"/>
<path d="M331.05 326.694L427.684 326.528L524.319 326.432L717.588 326.246L910.857 326.214L1007.49 326.201L1104.13 326.259C1104.13 326.259 1104.2 326.268 1104.2 326.278C1104.2 326.288 1104.16 326.297 1104.13 326.297L1007.49 326.464L910.857 326.56L717.588 326.745L524.319 326.777L427.684 326.79L331.05 326.733C331.05 326.733 330.979 326.723 330.979 326.713C330.979 326.704 331.014 326.694 331.05 326.694Z" fill="white" fill-opacity="0.08"/>
<path d="M358.559 312.339L448.311 312.179L538.05 312.086L717.541 311.897L897.044 311.846L986.784 311.824L1076.54 311.865L986.784 312.022L897.044 312.118L717.553 312.304L538.05 312.355L448.311 312.381L358.559 312.339Z" fill="white" fill-opacity="0.08"/>
<path d="M-1.67041 498.831L358.559 312.339L3.55372 499.567L-1.67041 498.831Z" fill="white" fill-opacity="0.08"/>
<path d="M157.559 498.898L438.332 312.288L163.019 499.5L157.559 498.898Z" fill="white" fill-opacity="0.08"/>
<path d="M316.813 498.978L518.107 312.234L322.461 499.42L316.813 498.978Z" fill="white" fill-opacity="0.08"/>
<path d="M476.078 499.061L597.88 312.182L481.879 499.337L476.078 499.061Z" fill="white" fill-opacity="0.08"/>
<path d="M635.391 499.154L677.654 312.128L641.262 499.244L635.391 499.154Z" fill="white" fill-opacity="0.08"/>
<path d="M794.738 499.247L757.439 312.077L800.609 499.151L794.738 499.247Z" fill="white" fill-opacity="0.08"/>
<path d="M954.121 499.337L837.214 312.022L959.922 499.061L954.121 499.337Z" fill="white" fill-opacity="0.08"/>
<path d="M1113.54 499.423L916.988 311.971L1119.2 498.975L1113.54 499.423Z" fill="white" fill-opacity="0.08"/>
<path d="M1272.99 499.5L996.761 311.916L1278.44 498.898L1272.99 499.5Z" fill="white" fill-opacity="0.08"/>
<path d="M1432.46 499.567L1076.54 311.865L1437.67 498.831L1432.46 499.567Z" fill="white" fill-opacity="0.08"/>
<path d="M1438 366.924C1438 367.366 1436.68 367.725 1435.06 367.725L0.941513 367.725C-0.682202 367.725 -2 367.366 -2 366.924C-2 366.482 -0.682202 366.124 0.941513 366.124L1435.06 366.124C1436.68 366.124 1438 366.482 1438 366.924Z" fill="white" fill-opacity="0.08"/>
<path d="M28.4508 357.677L717.965 357.607L1407.48 357.655C1408.89 357.655 1410.04 357.965 1410.03 358.353C1410.03 358.737 1408.89 359.051 1407.48 359.047L717.965 359.118L28.4508 359.07C27.0389 359.07 25.8858 358.759 25.8976 358.372C25.8976 357.988 27.0389 357.674 28.4508 357.677Z" fill="white" fill-opacity="0.08"/>
<path d="M55.9598 349.221L717.93 349.089L1379.9 349.176C1381.11 349.176 1382.1 349.445 1382.1 349.775C1382.1 350.104 1381.11 350.373 1379.9 350.373L717.93 350.505L55.9598 350.418C54.7479 350.418 53.7595 350.149 53.7595 349.819C53.7595 349.49 54.7479 349.221 55.9598 349.221Z" fill="white" fill-opacity="0.08"/>
<path d="M83.4689 340.757L400.682 340.639L717.894 340.572L1035.11 340.607L1352.32 340.693C1353.36 340.693 1354.19 340.921 1354.19 341.202C1354.19 341.484 1353.36 341.712 1352.32 341.712L1035.11 341.83L717.894 341.897L400.682 341.862L83.4689 341.776C82.4335 341.776 81.5981 341.548 81.5981 341.267C81.5981 340.985 82.4335 340.757 83.4689 340.757Z" fill="white" fill-opacity="0.08"/>
<path d="M110.978 332.288L262.701 332.185L414.424 332.141L717.871 332.054L1021.32 332.096L1173.04 332.118L1324.76 332.201C1325.63 332.201 1326.33 332.394 1326.33 332.631C1326.33 332.867 1325.63 333.056 1324.76 333.056L1173.04 333.159L1021.32 333.204L717.871 333.29L414.424 333.249L262.701 333.226L110.978 333.143C110.107 333.143 109.413 332.951 109.413 332.714C109.413 332.477 110.107 332.288 110.978 332.288Z" fill="white" fill-opacity="0.08"/>
<path d="M138.487 323.813L283.327 323.691L428.167 323.64L717.835 323.537L1007.5 323.585L1152.34 323.611L1297.18 323.704C1297.9 323.704 1298.48 323.861 1298.47 324.056C1298.47 324.248 1297.89 324.405 1297.18 324.405L1152.34 324.527L1007.5 324.578L717.835 324.68L428.167 324.632L283.327 324.607L138.487 324.514C137.769 324.514 137.193 324.357 137.204 324.162C137.204 323.97 137.781 323.813 138.487 323.813Z" fill="white" fill-opacity="0.08"/>
<path d="M165.995 315.327L303.941 315.193L441.886 315.135L717.788 315.02L993.69 315.068L1131.64 315.093L1269.58 315.196C1270.16 315.196 1270.62 315.324 1270.62 315.481C1270.62 315.638 1270.16 315.763 1269.58 315.763L1131.64 315.897L993.69 315.955L717.788 316.07L441.886 316.022L303.941 315.996L165.995 315.894C165.419 315.894 164.96 315.766 164.96 315.609C164.96 315.452 165.419 315.327 165.995 315.327Z" fill="white" fill-opacity="0.08"/>
<path d="M193.505 306.839L324.567 306.695L455.629 306.63L717.753 306.506L979.877 306.554L1110.94 306.579L1242 306.685C1242.45 306.685 1242.81 306.784 1242.81 306.906C1242.81 307.028 1242.45 307.127 1242 307.127L1110.94 307.271L979.877 307.335L717.753 307.46L455.629 307.412L324.567 307.386L193.505 307.281C193.058 307.281 192.693 307.181 192.693 307.06C192.693 306.938 193.058 306.839 193.505 306.839Z" fill="white" fill-opacity="0.08"/>
<path d="M221.014 298.341L345.193 298.19L469.372 298.123L717.729 297.988L966.087 298.033L1090.27 298.059L1214.45 298.168C1214.79 298.168 1215.06 298.241 1215.06 298.334C1215.06 298.427 1214.79 298.501 1214.45 298.501L1090.27 298.651L966.087 298.718L717.729 298.853L469.372 298.808L345.193 298.782L221.014 298.674C220.672 298.674 220.402 298.6 220.402 298.507C220.402 298.414 220.672 298.341 221.014 298.341Z" fill="white" fill-opacity="0.08"/>
<path d="M248.523 289.836L365.819 289.682L483.115 289.612L717.695 289.474L952.274 289.516L1069.57 289.538L1186.87 289.644C1187.11 289.644 1187.3 289.698 1187.3 289.762C1187.3 289.826 1187.1 289.881 1186.87 289.881L1069.57 290.038L952.274 290.108L717.695 290.246L483.115 290.204L365.819 290.182L248.523 290.076C248.276 290.076 248.088 290.022 248.088 289.958C248.088 289.894 248.288 289.839 248.523 289.839L248.523 289.836Z" fill="white" fill-opacity="0.08"/>
<path d="M276.031 281.322L386.432 281.165L496.833 281.091L717.647 280.947L938.46 280.982L1048.86 281.002L1159.26 281.104C1159.43 281.104 1159.56 281.139 1159.56 281.184C1159.56 281.229 1159.43 281.261 1159.27 281.264L1048.87 281.421L938.472 281.495L717.659 281.639L496.845 281.604L386.444 281.584L276.043 281.482C275.878 281.482 275.749 281.447 275.749 281.402C275.749 281.357 275.878 281.325 276.031 281.322Z" fill="white" fill-opacity="0.08"/>
<path d="M303.541 272.804L407.058 272.654L510.576 272.58L717.612 272.436L924.647 272.462L1028.16 272.474L1131.68 272.567C1131.78 272.567 1131.85 272.586 1131.85 272.612C1131.85 272.638 1131.78 272.657 1131.68 272.657L1028.16 272.807L924.647 272.881L717.612 273.025L510.576 273L407.058 272.987L303.541 272.894C303.447 272.894 303.376 272.875 303.376 272.849C303.376 272.823 303.447 272.804 303.541 272.804Z" fill="white" fill-opacity="0.08"/>
<path d="M331.05 264.278L427.684 264.134L524.319 264.06L717.588 263.916L910.857 263.929L1007.49 263.935L1104.13 264.015C1104.13 264.015 1104.2 264.025 1104.2 264.035C1104.2 264.044 1104.16 264.054 1104.13 264.054L1007.49 264.198L910.857 264.271L717.588 264.415L524.319 264.402L427.684 264.396L331.05 264.316C331.05 264.316 330.979 264.306 330.979 264.297C330.979 264.287 331.014 264.278 331.05 264.278Z" fill="white" fill-opacity="0.08"/>
<path d="M358.559 255.744L448.311 255.61L538.05 255.54L717.541 255.399L897.044 255.399L986.784 255.399L1076.54 255.463L986.784 255.597L897.044 255.667L717.553 255.808L538.05 255.808L448.311 255.808L358.559 255.744Z" fill="white" fill-opacity="0.08"/>
<path d="M-1.27051 366.399L358.559 255.744L3.15353 367.453L-1.27051 366.399Z" fill="white" fill-opacity="0.08"/>
<path d="M157.854 366.476L438.333 255.712L162.725 367.376L157.854 366.476Z" fill="white" fill-opacity="0.08"/>
<path d="M316.989 366.575L518.106 255.683L322.284 367.273L316.989 366.575Z" fill="white" fill-opacity="0.08"/>
<path d="M476.161 366.7L597.88 255.651L481.808 367.149L476.161 366.7Z" fill="white" fill-opacity="0.08"/>
<path d="M635.403 366.848L677.655 255.619L641.262 367.001L635.403 366.848Z" fill="white" fill-opacity="0.08"/>
<path d="M794.75 367.005L757.44 255.587L800.598 366.848L794.75 367.005Z" fill="white" fill-opacity="0.08"/>
<path d="M954.204 367.149L837.214 255.555L959.84 366.7L954.204 367.149Z" fill="white" fill-opacity="0.08"/>
<path d="M1113.73 367.277L916.988 255.523L1119.01 366.576L1113.73 367.277Z" fill="white" fill-opacity="0.08"/>
<path d="M1273.29 367.376L996.761 255.494L1278.15 366.473L1273.29 367.376Z" fill="white" fill-opacity="0.08"/>
<path d="M1432.85 367.453L1076.54 255.462L1437.27 366.399L1432.85 367.453Z" fill="white" fill-opacity="0.08"/>
<path d="M1438 234.649C1438 235.091 1436.68 235.449 1435.06 235.449L0.941513 235.449C-0.682202 235.449 -2 235.091 -2 234.649C-2 234.207 -0.682202 233.848 0.941513 233.848L1435.06 233.848C1436.68 233.848 1438 234.207 1438 234.649Z" fill="white" fill-opacity="0.08"/>
<path d="M28.4508 231.223L717.965 231.162L1407.48 231.217C1408.89 231.217 1410.04 231.527 1410.03 231.915C1410.03 232.299 1408.89 232.613 1407.48 232.609L717.965 232.67L28.4508 232.616C27.0389 232.616 25.8858 232.305 25.8976 231.918C25.9093 231.53 27.0389 231.22 28.4508 231.223Z" fill="white" fill-opacity="0.08"/>
<path d="M55.9598 228.588L717.93 228.473L1379.9 228.575C1381.11 228.575 1382.1 228.844 1382.1 229.174C1382.1 229.504 1381.11 229.773 1379.9 229.773L717.93 229.888L55.9598 229.785C54.7479 229.785 53.7595 229.516 53.7595 229.187C53.7595 228.857 54.7479 228.588 55.9598 228.588Z" fill="white" fill-opacity="0.08"/>
<path d="M83.4689 225.949L400.682 225.843L717.894 225.786L1035.11 225.831L1352.32 225.927C1353.36 225.927 1354.19 226.154 1354.19 226.436C1354.19 226.718 1353.36 226.945 1352.32 226.945L1035.11 227.051L717.894 227.108L400.682 227.063L83.4689 226.967C82.4335 226.967 81.5981 226.74 81.5981 226.458C81.5981 226.176 82.4335 225.949 83.4689 225.949Z" fill="white" fill-opacity="0.08"/>
<path d="M110.978 223.301L262.701 223.205L414.424 223.167L717.871 223.096L1021.32 223.154L1173.04 223.183L1324.76 223.272C1325.63 223.272 1326.33 223.464 1326.33 223.701C1326.33 223.938 1325.63 224.127 1324.76 224.127L1173.04 224.223L1021.32 224.262L717.871 224.332L414.424 224.275L262.701 224.246L110.978 224.156C110.107 224.156 109.413 223.964 109.413 223.727C109.413 223.49 110.107 223.301 110.978 223.301Z" fill="white" fill-opacity="0.08"/>
<path d="M138.487 220.644L283.327 220.531L428.167 220.49L717.835 220.407L1007.5 220.471L1152.34 220.506L1297.18 220.608C1297.9 220.608 1298.48 220.765 1298.47 220.961C1298.47 221.153 1297.89 221.31 1297.18 221.31L1152.34 221.422L1007.5 221.463L717.835 221.547L428.167 221.482L283.327 221.447L138.487 221.345C137.769 221.345 137.193 221.188 137.204 220.993C137.204 220.8 137.781 220.644 138.487 220.644Z" fill="white" fill-opacity="0.08"/>
<path d="M165.995 217.983L303.941 217.858L441.886 217.81L717.788 217.717L993.69 217.787L1131.64 217.826L1269.58 217.938C1270.16 217.938 1270.62 218.066 1270.62 218.223C1270.62 218.38 1270.15 218.505 1269.58 218.505L1131.64 218.63L993.69 218.678L717.788 218.771L441.886 218.7L303.941 218.662L165.995 218.55C165.419 218.55 164.96 218.421 164.96 218.265C164.96 218.108 165.431 217.983 165.995 217.983Z" fill="white" fill-opacity="0.08"/>
<path d="M193.505 215.312L324.567 215.181L455.629 215.129L717.753 215.03L979.877 215.104L1110.94 215.142L1242 215.261C1242.45 215.261 1242.81 215.36 1242.81 215.482C1242.81 215.603 1242.45 215.702 1242 215.702L1110.94 215.834L979.877 215.885L717.753 215.984L455.629 215.911L324.567 215.872L193.505 215.754C193.058 215.754 192.693 215.654 192.693 215.533C192.693 215.411 193.058 215.312 193.505 215.312Z" fill="white" fill-opacity="0.08"/>
<path d="M221.014 212.638L345.193 212.501L469.372 212.446L717.729 212.344L966.087 212.421L1090.27 212.459L1214.45 212.581C1214.79 212.581 1215.06 212.654 1215.06 212.747C1215.06 212.84 1214.79 212.914 1214.45 212.914L1090.27 213.051L966.087 213.106L717.729 213.208L469.372 213.131L345.193 213.093L221.014 212.971C220.672 212.971 220.402 212.898 220.402 212.805C220.402 212.712 220.672 212.638 221.014 212.638Z" fill="white" fill-opacity="0.08"/>
<path d="M248.523 209.952L365.819 209.814L483.115 209.76L717.695 209.654L952.274 209.728L1069.57 209.766L1186.87 209.888C1187.11 209.888 1187.3 209.942 1187.3 210.006C1187.3 210.07 1187.1 210.125 1186.87 210.125L1069.57 210.263L952.274 210.317L717.695 210.423L483.115 210.349L365.819 210.311L248.523 210.189C248.276 210.189 248.088 210.134 248.088 210.07C248.088 210.006 248.288 209.952 248.523 209.952Z" fill="white" fill-opacity="0.08"/>
<path d="M276.031 207.262L386.432 207.125L496.833 207.07L717.647 206.964L938.46 207.035L1048.86 207.073L1159.26 207.192C1159.43 207.192 1159.56 207.227 1159.56 207.272C1159.56 207.317 1159.43 207.349 1159.27 207.352L1048.87 207.49L938.472 207.544L717.659 207.65L496.845 207.579L386.444 207.541L276.043 207.422C275.878 207.422 275.749 207.387 275.749 207.342C275.749 207.297 275.878 207.265 276.031 207.262Z" fill="white" fill-opacity="0.08"/>
<path d="M303.541 204.566L407.058 204.434L510.576 204.38L717.612 204.277L924.647 204.341L1028.16 204.377L1131.68 204.489C1131.78 204.489 1131.85 204.508 1131.85 204.534C1131.85 204.559 1131.78 204.578 1131.68 204.578L1028.16 204.71L924.647 204.764L717.612 204.867L510.576 204.803L407.058 204.767L303.541 204.655C303.447 204.655 303.376 204.636 303.376 204.61C303.376 204.585 303.447 204.566 303.541 204.566Z" fill="white" fill-opacity="0.08"/>
<path d="M331.05 201.86L427.684 201.739L524.319 201.688L717.588 201.589L910.857 201.646L1007.49 201.675L1104.13 201.777C1104.13 201.777 1104.2 201.787 1104.2 201.796C1104.2 201.806 1104.16 201.816 1104.13 201.816L1007.49 201.937L910.857 201.988L717.588 202.087L524.319 202.03L427.684 202.001L331.05 201.899C331.05 201.899 330.979 201.889 330.979 201.88C330.979 201.87 331.014 201.86 331.05 201.86Z" fill="white" fill-opacity="0.08"/>
<path d="M358.559 199.148L448.311 199.04L538.05 198.992L717.541 198.902L897.044 198.947L986.784 198.973L1076.54 199.059L986.784 199.171L897.044 199.216L717.553 199.308L538.05 199.26L448.311 199.238L358.559 199.148Z" fill="white" fill-opacity="0.08"/>
<path d="M-0.0703127 233.9L358.559 199.148L1.95345 235.402L-0.0703127 233.9Z" fill="white" fill-opacity="0.08"/>
<path d="M159.042 233.925L438.333 199.138L161.536 235.375L159.042 233.925Z" fill="white" fill-opacity="0.08"/>
<path d="M318.013 233.983L518.107 199.129L321.249 235.318L318.013 233.983Z" fill="white" fill-opacity="0.08"/>
<path d="M476.808 234.111L597.88 199.119L481.161 235.19L476.808 234.111Z" fill="white" fill-opacity="0.08"/>
<path d="M635.508 234.419L677.654 199.11L641.144 234.883L635.508 234.419Z" fill="white" fill-opacity="0.08"/>
<path d="M794.868 234.886L757.44 199.1L800.492 234.415L794.868 234.886Z" fill="white" fill-opacity="0.08"/>
<path d="M954.851 235.19L837.214 199.087L959.192 234.108L954.851 235.19Z" fill="white" fill-opacity="0.08"/>
<path d="M1114.75 235.321L916.988 199.078L1117.99 233.98L1114.75 235.321Z" fill="white" fill-opacity="0.08"/>
<path d="M1274.46 235.375L996.761 199.068L1276.96 233.925L1274.46 235.375Z" fill="white" fill-opacity="0.08"/>
<path d="M1434.06 235.402L1076.54 199.059L1436.07 233.9L1434.06 235.402Z" fill="white" fill-opacity="0.08"/>
<path d="M1438 0.712947C1438 1.07885 1436.68 1.37582 1435.06 1.37582L0.941513 1.37585C-0.682202 1.37585 -2 1.07889 -2 0.71298C-2 0.347074 -0.682202 0.0501059 0.941513 0.0501059L1435.06 0.050073C1436.68 0.050073 1438 0.347041 1438 0.712947Z" fill="white" fill-opacity="0.08"/>
<path d="M28.4501 7.21712L717.964 7.17734L1407.48 7.23567C1408.89 7.23567 1410.03 7.49287 1410.03 7.8137C1410.03 8.13188 1408.89 8.39174 1407.48 8.38909L717.964 8.42883L28.4501 8.37051C27.0381 8.37051 25.8851 8.11333 25.8968 7.7925C25.8968 7.47432 27.0381 7.21712 28.4501 7.21712Z" fill="white" fill-opacity="0.08"/>
<path d="M55.9598 14.3812L717.93 14.3096L1379.9 14.4183C1381.11 14.4183 1382.1 14.641 1382.1 14.9141C1382.1 15.1873 1381.11 15.41 1379.9 15.41L717.93 15.4816L55.9598 15.3728C54.7479 15.3728 53.7595 15.1501 53.7595 14.877C53.7595 14.6039 54.7479 14.3812 55.9598 14.3812Z" fill="white" fill-opacity="0.08"/>
<path d="M83.4682 21.5378L400.681 21.4662L717.894 21.4371L1035.11 21.4927L1352.32 21.5908C1353.35 21.5908 1354.19 21.7818 1354.19 22.0125C1354.19 22.2458 1353.35 22.434 1352.32 22.434L1035.11 22.5056L717.894 22.5348L400.681 22.4791L83.4682 22.381C82.4328 22.381 81.5974 22.1927 81.5974 21.9594C81.5974 21.7261 82.4328 21.5378 83.4682 21.5378Z" fill="white" fill-opacity="0.08"/>
<path d="M110.978 28.686L262.701 28.6171L414.424 28.5985L717.871 28.5641L1021.32 28.6356L1173.04 28.6728L1324.76 28.7576C1325.63 28.7576 1326.33 28.9167 1326.33 29.1129C1326.33 29.3091 1325.63 29.4656 1324.76 29.4656L1173.04 29.5345L1021.32 29.5531L717.871 29.5875L414.424 29.5159L262.701 29.4788L110.978 29.394C110.107 29.394 109.413 29.2349 109.413 29.0387C109.413 28.8425 110.107 28.686 110.978 28.686Z" fill="white" fill-opacity="0.08"/>
<path d="M138.487 35.8311L283.327 35.7542L428.167 35.733L717.835 35.6932L1007.5 35.778L1152.34 35.8205L1297.18 35.9212C1297.9 35.9212 1298.48 36.0511 1298.47 36.2129C1298.47 36.372 1297.89 36.5019 1297.18 36.5019L1152.34 36.5788L1007.5 36.6L717.835 36.6398L428.167 36.5549L283.327 36.5125L138.487 36.4117C137.769 36.4117 137.193 36.2818 137.204 36.1201C137.204 35.961 137.781 35.8311 138.487 35.8311Z" fill="white" fill-opacity="0.08"/>
<path d="M165.996 42.969L303.942 42.8842L441.887 42.863L717.789 42.8232L993.691 42.9187L1131.64 42.9664L1269.58 43.0777C1270.16 43.0777 1270.62 43.1838 1270.62 43.3137C1270.62 43.4437 1270.15 43.5471 1269.58 43.5471L1131.64 43.6319L993.691 43.6531L717.789 43.6929L441.887 43.5974L303.942 43.5497L165.996 43.4383C165.42 43.4383 164.961 43.3323 164.961 43.2024C164.961 43.0724 165.432 42.969 165.996 42.969Z" fill="white" fill-opacity="0.08"/>
<path d="M193.505 50.1041L324.567 50.0166L455.629 49.9953L717.753 49.9556L979.877 50.059L1110.94 50.112L1242 50.2313C1242.45 50.2313 1242.81 50.3135 1242.81 50.4143C1242.81 50.515 1242.45 50.5972 1242 50.5972L1110.94 50.6847L979.877 50.7059L717.753 50.7457L455.629 50.6423L324.567 50.5893L193.505 50.47C193.058 50.47 192.693 50.3877 192.693 50.287C192.693 50.1862 193.058 50.1041 193.505 50.1041Z" fill="white" fill-opacity="0.08"/>
<path d="M221.014 57.2286L345.193 57.1385L469.372 57.1172L717.73 57.0801L966.088 57.1915L1090.27 57.2471L1214.45 57.3718C1214.79 57.3718 1215.06 57.4354 1215.06 57.5096C1215.06 57.5865 1214.79 57.6475 1214.45 57.6475L1090.27 57.7377L966.088 57.7589L717.73 57.796L469.372 57.6846L345.193 57.629L221.014 57.5044C220.673 57.5044 220.402 57.4407 220.402 57.3665C220.402 57.2896 220.673 57.2286 221.014 57.2286Z" fill="white" fill-opacity="0.08"/>
<path d="M248.523 64.3503L365.819 64.2628L483.115 64.2442L717.695 64.2097L952.274 64.3238L1069.57 64.3821L1186.87 64.512C1187.11 64.512 1187.3 64.5571 1187.3 64.6101C1187.3 64.6631 1187.1 64.7082 1186.87 64.7082L1069.57 64.7957L952.274 64.8143L717.695 64.8488L483.115 64.7347L365.819 64.6764L248.523 64.5465C248.276 64.5465 248.088 64.5014 248.088 64.4484C248.088 64.3953 248.288 64.3503 248.523 64.3503Z" fill="white" fill-opacity="0.08"/>
<path d="M276.032 71.4667L386.433 71.3819L496.833 71.3659L717.647 71.3368L938.461 71.4561L1048.86 71.5171L1159.26 71.647C1159.43 71.647 1159.56 71.6762 1159.54 71.7133C1159.54 71.7504 1159.42 71.7769 1159.25 71.7769L1048.85 71.8618L938.449 71.8777L717.635 71.9069L496.822 71.7876L386.421 71.7266L276.02 71.5966C275.855 71.5966 275.726 71.5675 275.738 71.5303C275.738 71.4932 275.867 71.4667 276.032 71.4667Z" fill="white" fill-opacity="0.08"/>
<path d="M303.541 78.5759L407.058 78.4991L510.576 78.4885L717.612 78.4673L924.647 78.5865L1028.16 78.6474L1131.68 78.7718C1131.78 78.7718 1131.85 78.7877 1131.85 78.8089C1131.85 78.83 1131.78 78.8459 1131.68 78.8459L1028.16 78.9227L924.647 78.9333L717.612 78.9545L510.576 78.8353L407.058 78.7744L303.541 78.65C303.447 78.65 303.376 78.6341 303.376 78.6129C303.376 78.5918 303.447 78.5759 303.541 78.5759Z" fill="white" fill-opacity="0.08"/>
<path d="M331.051 85.6789L427.685 85.6127L524.32 85.6074L717.589 85.5968L910.858 85.716L1007.49 85.7769L1104.13 85.896C1104.13 85.896 1104.2 85.904 1104.2 85.9119C1104.2 85.9199 1104.16 85.9278 1104.13 85.9278L1007.49 85.994L910.858 85.9993L717.589 86.0099L524.32 85.8907L427.685 85.8298L331.051 85.7107C331.051 85.7107 330.98 85.7027 330.98 85.6948C330.98 85.6869 331.015 85.6789 331.051 85.6789Z" fill="white" fill-opacity="0.08"/>
<path d="M358.559 92.7767L448.311 92.7237L538.05 92.7237L717.553 92.7264L897.044 92.8402L986.784 92.8985L1076.54 93.0097L986.784 93.0627L897.044 93.0653L717.541 93.0627L538.05 92.9461L448.311 92.8879L358.559 92.7767Z" fill="white" fill-opacity="0.08"/>
<path d="M3.154 0.27533L358.559 92.776L-1.27004 1.15032L3.154 0.27533Z" fill="white" fill-opacity="0.08"/>
<path d="M162.725 0.339043L438.333 92.8026L157.854 1.08677L162.725 0.339043Z" fill="white" fill-opacity="0.08"/>
<path d="M322.284 0.42366L518.106 92.8289L316.989 1.00166L322.284 0.42366Z" fill="white" fill-opacity="0.08"/>
<path d="M481.809 0.527405L597.881 92.8557L476.161 0.898613L481.809 0.527405Z" fill="white" fill-opacity="0.08"/>
<path d="M641.262 0.649429L677.655 92.8796L635.403 0.776695L641.262 0.649429Z" fill="white" fill-opacity="0.08"/>
<path d="M800.598 0.779465L757.44 92.9062L794.751 0.649544L800.598 0.779465Z" fill="white" fill-opacity="0.08"/>
<path d="M959.84 0.898506L837.214 92.9325L954.204 0.527298L959.84 0.898506Z" fill="white" fill-opacity="0.08"/>
<path d="M1119.01 1.00488L916.988 92.9594L1113.73 0.424225L1119.01 1.00488Z" fill="white" fill-opacity="0.08"/>
<path d="M1278.15 1.08705L996.761 92.9858L1273.29 0.339333L1278.15 1.08705Z" fill="white" fill-opacity="0.08"/>
<path d="M1437.27 1.15054L1076.54 93.0095L1432.85 0.275544L1437.27 1.15054Z" fill="white" fill-opacity="0.08"/>
<path d="M1438 110.244C1438 110.609 1436.68 110.906 1435.06 110.906L0.941513 110.906C-0.682202 110.906 -2 110.61 -2 110.244C-2 109.878 -0.682202 109.581 0.941513 109.581L1435.06 109.581C1436.68 109.581 1438 109.878 1438 110.244Z" fill="white" fill-opacity="0.08"/>
<path d="M28.4501 111.927L717.964 111.882L1407.48 111.933C1408.89 111.933 1410.03 112.19 1410.03 112.511C1410.03 112.831 1408.89 113.086 1407.48 113.086L717.964 113.131L28.4501 113.081C27.0381 113.081 25.8851 112.824 25.8968 112.503C25.8968 112.185 27.0381 111.925 28.4501 111.927Z" fill="white" fill-opacity="0.08"/>
<path d="M55.9598 114.269L717.93 114.184L1379.9 114.279C1381.11 114.279 1382.1 114.502 1382.1 114.775C1382.1 115.048 1381.11 115.271 1379.9 115.271L717.93 115.356L55.9598 115.261C54.7479 115.261 53.7595 115.038 53.7595 114.765C53.7595 114.492 54.7479 114.269 55.9598 114.269Z" fill="white" fill-opacity="0.08"/>
<path d="M83.4682 116.604L400.681 116.525L717.894 116.488L1035.11 116.535L1352.32 116.623C1353.35 116.623 1354.19 116.811 1354.19 117.044C1354.19 117.278 1353.35 117.466 1352.32 117.466L1035.11 117.546L717.894 117.583L400.681 117.535L83.4682 117.448C82.4328 117.448 81.5974 117.259 81.5974 117.026C81.5974 116.793 82.4328 116.604 83.4682 116.604Z" fill="white" fill-opacity="0.08"/>
<path d="M110.978 118.935L262.701 118.861L414.424 118.837L717.871 118.79L1021.32 118.848L1173.04 118.88L1324.76 118.959C1325.63 118.959 1326.33 119.118 1326.33 119.315C1326.33 119.511 1325.63 119.667 1324.76 119.667L1173.04 119.742L1021.32 119.765L717.871 119.813L414.424 119.755L262.701 119.723L110.978 119.643C110.107 119.643 109.413 119.484 109.413 119.288C109.413 119.092 110.107 118.935 110.978 118.935Z" fill="white" fill-opacity="0.08"/>
<path d="M138.487 121.258L283.327 121.173L428.167 121.143L717.835 121.09L1007.5 121.159L1152.34 121.194L1297.18 121.287C1297.9 121.287 1298.48 121.417 1298.47 121.578C1298.47 121.737 1297.89 121.867 1297.18 121.867L1152.34 121.952L1007.5 121.981L717.835 122.034L428.167 121.965L283.327 121.931L138.487 121.838C137.769 121.838 137.193 121.708 137.204 121.547C137.204 121.387 137.781 121.258 138.487 121.258Z" fill="white" fill-opacity="0.08"/>
<path d="M165.996 123.578L303.942 123.485L441.887 123.453L717.789 123.395L993.691 123.472L1131.64 123.512L1269.58 123.615C1270.16 123.615 1270.62 123.721 1270.62 123.851C1270.62 123.981 1270.15 124.085 1269.58 124.085L1131.64 124.177L993.691 124.209L717.789 124.267L441.887 124.191L303.942 124.151L165.996 124.047C165.42 124.047 164.961 123.941 164.961 123.811C164.961 123.681 165.432 123.578 165.996 123.578Z" fill="white" fill-opacity="0.08"/>
<path d="M193.505 125.89L324.567 125.791L455.629 125.76L717.753 125.699L979.877 125.781L1110.94 125.823L1242 125.932C1242.45 125.932 1242.81 126.014 1242.81 126.115C1242.81 126.216 1242.45 126.298 1242 126.298L1110.94 126.396L979.877 126.428L717.753 126.489L455.629 126.407L324.567 126.364L193.505 126.255C193.058 126.255 192.693 126.173 192.693 126.073C192.693 125.972 193.058 125.89 193.505 125.89Z" fill="white" fill-opacity="0.08"/>
<path d="M221.014 128.197L345.193 128.096L469.372 128.064L717.73 128L966.088 128.085L1090.27 128.13L1214.45 128.244C1214.79 128.244 1215.06 128.308 1215.06 128.382C1215.06 128.459 1214.79 128.52 1214.45 128.52L1090.27 128.621L966.088 128.653L717.73 128.716L469.372 128.631L345.193 128.586L221.014 128.472C220.673 128.472 220.402 128.409 220.402 128.335C220.402 128.258 220.673 128.197 221.014 128.197Z" fill="white" fill-opacity="0.08"/>
<path d="M248.523 130.496L365.819 130.395L483.115 130.363L717.695 130.302L952.274 130.39L1069.57 130.435L1186.87 130.549C1187.11 130.549 1187.3 130.594 1187.3 130.647C1187.3 130.7 1187.1 130.745 1186.87 130.745L1069.57 130.846L952.274 130.877L717.695 130.938L483.115 130.851L365.819 130.806L248.523 130.692C248.276 130.692 248.088 130.647 248.088 130.594C248.088 130.541 248.288 130.496 248.523 130.496Z" fill="white" fill-opacity="0.08"/>
<path d="M276.032 132.791L386.433 132.693L496.833 132.662L717.647 132.603L938.461 132.691L1048.86 132.736L1159.26 132.85C1159.43 132.85 1159.56 132.879 1159.54 132.916C1159.54 132.953 1159.42 132.98 1159.25 132.982L1048.85 133.08L938.449 133.112L717.635 133.171L496.822 133.083L386.421 133.038L276.02 132.924C275.855 132.924 275.726 132.895 275.738 132.858C275.738 132.821 275.867 132.794 276.032 132.791Z" fill="white" fill-opacity="0.08"/>
<path d="M303.541 135.08L407.058 134.988L510.576 134.959L717.612 134.906L924.647 134.99L1028.16 135.035L1131.68 135.144C1131.78 135.144 1131.85 135.16 1131.85 135.181C1131.85 135.202 1131.78 135.218 1131.68 135.218L1028.16 135.311L924.647 135.34L717.612 135.393L510.576 135.308L407.058 135.263L303.541 135.155C303.447 135.155 303.376 135.139 303.376 135.117C303.376 135.096 303.447 135.08 303.541 135.08Z" fill="white" fill-opacity="0.08"/>
<path d="M331.051 137.363L427.685 137.278L524.32 137.254L717.589 137.207L910.858 137.289L1007.49 137.331L1104.13 137.432C1104.13 137.432 1104.2 137.44 1104.2 137.448C1104.2 137.455 1104.16 137.463 1104.13 137.463L1007.49 137.548L910.858 137.572L717.589 137.62L524.32 137.538L427.685 137.495L331.051 137.395C331.051 137.395 330.98 137.387 330.98 137.379C330.98 137.371 331.015 137.363 331.051 137.363Z" fill="white" fill-opacity="0.08"/>
<path d="M358.559 139.641L448.311 139.569L538.05 139.548L717.553 139.508L897.044 139.585L986.784 139.625L1076.54 139.715L986.784 139.789L897.044 139.807L717.541 139.847L538.05 139.77L448.311 139.733L358.559 139.641Z" fill="white" fill-opacity="0.08"/>
<path d="M1.95344 109.62L358.559 139.64L-0.0703171 110.867L1.95344 109.62Z" fill="white" fill-opacity="0.08"/>
<path d="M161.537 109.645L438.333 139.648L159.042 110.843L161.537 109.645Z" fill="white" fill-opacity="0.08"/>
<path d="M321.248 109.69L518.106 139.656L318.013 110.798L321.248 109.69Z" fill="white" fill-opacity="0.08"/>
<path d="M481.161 109.799L597.88 139.665L476.808 110.69L481.161 109.799Z" fill="white" fill-opacity="0.08"/>
<path d="M641.144 110.053L677.654 139.675L635.508 110.435L641.144 110.053Z" fill="white" fill-opacity="0.08"/>
<path d="M800.492 110.437L757.44 139.683L794.868 110.048L800.492 110.437Z" fill="white" fill-opacity="0.08"/>
<path d="M959.192 110.692L837.214 139.691L954.851 109.796L959.192 110.692Z" fill="white" fill-opacity="0.08"/>
<path d="M1117.99 110.798L916.988 139.698L1114.75 109.69L1117.99 110.798Z" fill="white" fill-opacity="0.08"/>
<path d="M1276.96 110.843L996.761 139.707L1274.46 109.642L1276.96 110.843Z" fill="white" fill-opacity="0.08"/>
<path d="M1436.07 110.867L1076.54 139.715L1434.06 109.621L1436.07 110.867Z" fill="white" fill-opacity="0.08"/>
<path d="M0.94165 169.373L45.7585 169.203L90.5754 169.075L180.209 168.822C239.969 168.691 299.717 168.572 359.477 168.495C419.237 168.393 478.985 168.37 538.744 168.309L718.012 168.249L897.279 168.309C957.039 168.37 1016.79 168.393 1076.55 168.495C1136.31 168.572 1196.05 168.691 1255.81 168.822L1345.45 169.075L1390.27 169.203L1435.08 169.373L1390.27 169.542L1345.45 169.67L1255.81 169.923C1196.05 170.055 1136.31 170.173 1076.55 170.25C1016.79 170.352 957.039 170.375 897.279 170.436L718.012 170.496L538.744 170.436C478.985 170.375 419.237 170.352 359.477 170.25C299.717 170.173 239.969 170.055 180.209 169.923L90.5754 169.67L45.7585 169.542L0.94165 169.373Z" fill="#0029FF"/>
</svg>
