<?xml version="1.0" encoding="UTF-8"?>
<svg id="Layer_2" data-name="Layer 2" xmlns="http://www.w3.org/2000/svg" viewBox="0 0 8323.18 1248.6">
  <defs>
    <style>
      .cls-1 {
        fill: blue;
      }

      .cls-2, .cls-3 {
        fill: #fff;
      }

      .cls-3 {
        fill-rule: evenodd;
      }
    </style>
  </defs>
  <g id="Layer_1-2" data-name="Layer 1">
    <g>
      <rect class="cls-2" x="7944.66" y="0" width="378.52" height="1237.47"/>
      <path class="cls-2" d="m1584.5,294.98h-937.56c-71.11,0-122.02,4.85-152.77,14.53-60.24,18.77-95.79,65.37-106.62,139.82-6.04,41.73-9.05,97.42-9.05,167.02,0,88.96,6.93,155.22,20.78,198.81,16.27,52.64,50.3,86.53,102.11,101.65,33.73,9.68,80.13,14.53,139.19,14.53h627.71v-373.19h330.75v679.32h-1013.72c-109.77,0-201.74-6.65-275.94-19.95-114.01-19.93-196.02-74.63-246.09-164.07-23.52-42.92-39.49-96.72-47.95-161.38C5.11,813.48,0,722.22,0,618.27c0-125.7,6.02-229.34,18.09-310.94,11.44-78.57,44.32-145.98,98.58-202.16,44.03-45.35,98.01-74.37,161.93-87.06C337.68,6.04,423.62,0,536.39,0h1048.1v294.98Z"/>
      <path class="cls-3" d="m3816.38,0h376.66v664.48c-.61,89.42,7.82,154.35,25.32,194.83,16.23,37.48,48.16,61.94,95.73,73.39,52.42,12.71,134.36,19.06,245.79,19.06,145.78,0,248.16-3.03,307.22-9.09,54.82-4.83,92.76-20.82,113.85-48,24.07-29.6,37.93-70.4,41.55-122.36,2.41-27.79,3.62-60.71,3.62-98.76V0h376.64v648.18c0,129.39-3.92,220.37-11.76,272.99-15.1,96.74-55.23,171.42-120.44,224.01-56.14,46.56-131.88,76.79-227.26,90.71-45.27,7.24-191.66,11.48-439.16,12.71-189.55-1.23-311.2-3.64-364.9-7.24-155.74-10.89-265.6-53.53-329.59-127.9-45.89-53.21-74.28-130.91-85.12-233.1-5.42-47.15-8.16-118.82-8.16-214.95V0Z"/>
      <polygon class="cls-3" points="6422.3 1237.45 5762.78 0 6177.68 0 6665.99 934.67 7165.19 0 7584.65 0 6899.74 1237.45 6422.3 1237.45"/>
      <g>
        <path class="cls-1" d="m3243.47,906.9c78.53-23.58,135.6-75.56,171.23-155.97,27.78-63.49,41.67-162.35,41.67-296.57,0-68.34-4.24-128.5-12.67-180.48-15.12-92.51-57.09-162.35-125.94-209.5-48.32-32.05-118.08-52-209.28-59.86-36.23-3.01-102.98-4.51-200.22-4.51h-949.2v632.64h378.5v-330.24h545.34c38.07,0,62.81.61,74.27,1.82,28.39,3.01,52.24,10.57,71.58,22.67,35.04,22.98,52.56,69.86,52.56,140.63,0,41.73-3.33,71.07-9.98,88.01-12.67,31.44-32.62,52.3-59.8,62.58-25.95,9.68-68.83,14.53-128.63,14.53h-170.52v300.54l349.04,304.26h394.95l-354.57-309.08c61.27-4.28,108.48-11.44,141.66-21.48Z"/>
        <rect class="cls-1" x="1959.38" y="818.06" width="378.75" height="424.34"/>
      </g>
    </g>
  </g>
</svg>