<svg width="43" height="24" viewBox="0 0 43 24" fill="none" xmlns="http://www.w3.org/2000/svg">
<path id="Vector" d="M42.0023 4.75575L23.333 23.3917C23.1108 23.6129 22.87 23.7699 22.6107 23.8628C22.3514 23.9557 22.0736 24.0014 21.7772 24C21.4809 24 21.2031 23.9535 20.9438 23.8606C20.6845 23.7677 20.4437 23.6114 20.2215 23.3917L1.49664 4.75575C0.978044 4.23962 0.718749 3.59446 0.718749 2.82027C0.718749 2.04608 0.996566 1.38248 1.5522 0.829489C2.10783 0.276495 2.75607 -3.9035e-06 3.49691 -3.9358e-06C4.23776 -3.96809e-06 4.886 0.276495 5.44163 0.829489L21.7772 17.0875L38.1129 0.829487C38.6314 0.313359 39.2708 0.0552943 40.0309 0.0552942C40.791 0.0552942 41.4481 0.331791 42.0023 0.884785C42.5579 1.43778 42.8357 2.08294 42.8357 2.82027C42.8357 3.55759 42.5579 4.20275 42.0023 4.75575Z" fill="#0029FF"/>
</svg>
