<svg width="30" height="18" viewBox="0 0 30 18" fill="none" xmlns="http://www.w3.org/2000/svg">
<path d="M29.4063 3.56681L16.1082 17.5438C15.9499 17.7097 15.7784 17.8274 15.5937 17.8971C15.409 17.9668 15.2111 18.0011 15 18C14.7889 18 14.591 17.9651 14.4063 17.8955C14.2216 17.8258 14.0501 17.7085 13.8918 17.5438L0.554089 3.56682C0.184696 3.17972 -6.2214e-07 2.69585 -6.45744e-07 2.11521C-6.69348e-07 1.53456 0.197888 1.03687 0.593667 0.622121C0.989445 0.207375 1.45119 2.05269e-06 1.97889 2.02788e-06C2.5066 2.00308e-06 2.96834 0.207375 3.36412 0.622121L15 12.8156L26.6359 0.62212C27.0053 0.235024 27.4607 0.0414748 28.0021 0.0414748C28.5435 0.0414747 29.0116 0.248848 29.4063 0.663594C29.8021 1.07834 30 1.56221 30 2.1152C30 2.6682 29.8021 3.15207 29.4063 3.56681Z" fill="#0029FF"/>
</svg>
