<?xml version="1.0" encoding="UTF-8"?>
<svg width="100px" height="100px" viewBox="0 0 100 100" version="1.1" xmlns="http://www.w3.org/2000/svg" xmlns:xlink="http://www.w3.org/1999/xlink">
    <title>icon-fast-loading</title>
    <g id="Page-1" stroke="none" stroke-width="1" fill="none" fill-rule="evenodd">
        <g id="icon-fast-loading" transform="translate(1, 1)">
            <circle id="Oval" stroke="#0029FF" stroke-width="2" cx="49" cy="49" r="49"></circle>
            <g id="Group" transform="translate(18, 19.1424)" fill="#FFFFFF" fill-rule="nonzero">
                <path d="M56.8901,29.9905 C56.3783,24.8429 54.0786,19.9899 50.4143,16.3255 C47.2828,13.1941 43.4499,11.1818 39.4169,10.287 L39.4169,7.4584 C41.0641,7.0486 42.2885,5.5575 42.2885,3.7853 C42.2885,1.6981 40.5905,-3.55271368e-15 38.5033,-3.55271368e-15 L30.4876,-3.55271368e-15 C28.4004,-3.55271368e-15 26.7024,1.6981 26.7024,3.7853 C26.7024,5.5574 27.9268,7.0485 29.5739,7.4584 L29.5739,10.2949 C25.5532,11.1935 21.733,13.203 18.6105,16.3256 C17.9271,17.0089 17.297,17.7258 16.7202,18.4708 C16.6922,18.4687 16.6643,18.4666 16.6358,18.4666 L8.7023,18.4666 C8.0876,18.4666 7.589,18.965 7.589,19.5799 C7.589,20.1947 8.0876,20.6932 8.7023,20.6932 L15.2053,20.6932 C14.389,22.0597 13.7309,23.4949 13.2299,24.9722 L1.1133,24.9722 C0.4985,24.9722 0,25.4707 0,26.0855 C0,26.7004 0.4985,27.1988 1.1133,27.1988 L12.6008,27.1988 C12.2799,28.6073 12.0958,30.0406 12.0482,31.478 L7.1251,31.478 C6.5103,31.478 6.0118,31.9764 6.0118,32.5913 C6.0118,33.2062 6.5103,33.7046 7.1251,33.7046 L12.0837,33.7046 C12.1777,35.1457 12.4094,36.5791 12.7789,37.9838 L5.5665,37.9838 C4.9517,37.9838 4.4532,38.4822 4.4532,39.0971 C4.4532,39.712 4.9517,40.2104 5.5665,40.2104 L13.4894,40.2104 C14.5815,43.0995 16.2883,45.8074 18.6105,48.1295 C22.2783,51.7974 27.1363,54.0977 32.2893,54.6068 C33.0248,54.6794 33.7608,54.7153 34.4958,54.7153 C38.8401,54.7153 43.1292,53.4581 46.7686,51.0881 C47.2838,50.7526 47.4295,50.0629 47.094,49.5476 C46.7584,49.0324 46.0687,48.8867 45.5535,49.2222 C37.5871,54.4098 26.918,53.2882 20.1849,46.5551 C12.2847,38.6549 12.2847,25.8004 20.1849,17.9001 C28.085,10 40.9394,10 48.8397,17.9001 C55.564,24.6244 56.6917,35.2844 51.5212,43.2469 C51.1864,43.7626 51.333,44.4522 51.8485,44.7869 C52.3644,45.1218 53.0538,44.9752 53.3886,44.4595 C56.1511,40.205 57.3947,35.0666 56.8901,29.9905 Z M28.929,3.7854 C28.929,2.9259 29.6281,2.2268 30.4876,2.2268 L38.5033,2.2268 C39.3628,2.2268 40.0619,2.9259 40.0619,3.7854 C40.0619,4.6448 39.3628,5.344 38.5033,5.344 L38.3036,5.344 L30.6872,5.344 L30.4876,5.344 C29.6281,5.344 28.929,4.6447 28.929,3.7854 Z M31.8005,9.9122 L31.8005,7.5706 L37.1903,7.5706 L37.1903,9.9082 C35.4006,9.6953 33.5899,9.6967 31.8005,9.9122 Z" id="Shape"></path>
                <path d="M49.6274,46.2285 C49.3335,46.2285 49.0474,46.3476 48.8405,46.5546 C48.6323,46.7617 48.5142,47.0489 48.5142,47.3417 C48.5142,47.6345 48.6323,47.9218 48.8405,48.1288 C49.0474,48.337 49.3336,48.455 49.6274,48.455 C49.9202,48.455 50.2063,48.337 50.4145,48.1288 C50.6216,47.9218 50.7407,47.6345 50.7407,47.3417 C50.7407,47.0489 50.6217,46.7617 50.4145,46.5546 C50.2063,46.3476 49.9201,46.2285 49.6274,46.2285 Z" id="Path"></path>
                <path d="M34.5122,14.9569 C24.9893,14.9569 17.2417,22.7043 17.2417,32.2274 C17.2417,41.7504 24.9893,49.4979 34.5122,49.4979 C44.0351,49.4979 51.7827,41.7504 51.7827,32.2274 C51.7827,22.7043 44.0351,14.9569 34.5122,14.9569 Z M34.5122,47.2713 C26.2169,47.2713 19.4683,40.5226 19.4683,32.2274 C19.4683,23.9322 26.2169,17.1835 34.5122,17.1835 C42.8075,17.1835 49.5561,23.9322 49.5561,32.2274 C49.5561,40.5226 42.8075,47.2713 34.5122,47.2713 Z" id="Shape"></path>
                <path d="M41.5546,23.6107 L36.0404,29.1247 C35.5793,28.8967 35.0606,28.7679 34.5123,28.7679 C33.9639,28.7679 33.4453,28.8967 32.9842,29.1247 L30.5163,26.6569 C30.0815,26.2221 29.3767,26.2221 28.9418,26.6569 C28.507,27.0916 28.507,27.7966 28.9418,28.2313 L31.4096,30.6992 C31.1815,31.1603 31.0528,31.679 31.0528,32.2273 C31.0528,34.1348 32.6046,35.6867 34.5123,35.6867 C36.4199,35.6867 37.9717,34.1348 37.9717,32.2273 C37.9717,31.679 37.8429,31.1603 37.6149,30.6992 L42.9672,25.3469 L43.129,25.1851 C43.5637,24.7504 43.5637,24.0454 43.129,23.6107 C42.6942,23.1759 41.9895,23.1759 41.5546,23.6107 Z M34.5123,33.4603 C33.8325,33.4603 33.2794,32.9072 33.2794,32.2274 C33.2794,31.5476 33.8325,30.9945 34.5123,30.9945 C35.1921,30.9945 35.7451,31.5476 35.7451,32.2274 C35.7451,32.9072 35.1921,33.4603 34.5123,33.4603 Z" id="Shape"></path>
                <path d="M46.4157,31.1277 L45.3843,31.1277 C44.7695,31.1277 44.271,31.6261 44.271,32.241 C44.271,32.8558 44.7695,33.3542 45.3843,33.3542 L46.4157,33.3542 C47.0305,33.3542 47.529,32.8558 47.529,32.241 C47.529,31.6261 47.0305,31.1277 46.4157,31.1277 Z" id="Path"></path>
                <path d="M23.6402,31.1005 L22.6089,31.1005 C21.9941,31.1005 21.4956,31.5989 21.4956,32.2138 C21.4956,32.8287 21.9941,33.3271 22.6089,33.3271 L23.6402,33.3271 C24.255,33.3271 24.7535,32.8287 24.7535,32.2138 C24.7535,31.5989 24.255,31.1005 23.6402,31.1005 Z" id="Path"></path>
                <path d="M34.5259,22.4687 C35.1406,22.4687 35.6392,21.9703 35.6392,21.3554 L35.6392,20.3241 C35.6392,19.7092 35.1406,19.2108 34.5259,19.2108 C33.9111,19.2108 33.4126,19.7092 33.4126,20.3241 L33.4126,21.3554 C33.4126,21.9703 33.9111,22.4687 34.5259,22.4687 Z" id="Path"></path>
                <path d="M34.4985,41.986 C33.8838,41.986 33.3853,42.4844 33.3853,43.0993 L33.3853,44.1306 C33.3853,44.7455 33.8838,45.2439 34.4985,45.2439 C35.1133,45.2439 35.6118,44.7455 35.6118,44.1306 L35.6118,43.0993 C35.6118,42.4844 35.1133,41.986 34.4985,41.986 Z" id="Path"></path>
                <path d="M1.1133,37.9834 C0.8205,37.9834 0.5333,38.1025 0.3262,38.3096 C0.1191,38.5166 0,38.8039 0,39.0966 C0,39.3906 0.119,39.6767 0.3262,39.8837 C0.5334,40.0908 0.8205,40.2099 1.1133,40.2099 C1.4061,40.2099 1.6933,40.0908 1.9003,39.8837 C2.1073,39.6767 2.2266,39.3894 2.2266,39.0966 C2.2266,38.8039 2.1074,38.5166 1.9003,38.3096 C1.6933,38.1025 1.4061,37.9834 1.1133,37.9834 Z" id="Path"></path>
            </g>
        </g>
    </g>
</svg>