<?xml version="1.0" encoding="UTF-8"?>
<svg width="100px" height="100px" viewBox="0 0 100 100" version="1.1" xmlns="http://www.w3.org/2000/svg" xmlns:xlink="http://www.w3.org/1999/xlink">
    <title>icon-dashboards</title>
    <g id="Page-1" stroke="none" stroke-width="1" fill="none" fill-rule="evenodd">
        <g id="icon-dashboards" transform="translate(1, 1)" fill-rule="nonzero">
            <circle id="Oval" stroke="#0029FF" stroke-width="2" cx="49" cy="49" r="49"></circle>
            <path d="M70.7654,59.1875 L68.9842,59.1875 L68.9842,52.0625 C68.9842,51.5901 68.7965,51.137 68.4625,50.803 C68.1284,50.4689 67.6754,50.2812 67.2029,50.2812 L65.4217,50.2812 C64.9493,50.2812 64.4962,50.4689 64.1622,50.803 C63.8281,51.137 63.6404,51.5901 63.6404,52.0625 L63.6404,59.1875 L62.7498,59.1875 L62.7498,46.7188 C62.7498,46.2463 62.5622,45.7933 62.2281,45.4592 C61.8941,45.1252 61.441,44.9375 60.9686,44.9375 L59.1873,44.9375 C58.7149,44.9375 58.2618,45.1252 57.9278,45.4592 C57.5937,45.7933 57.4061,46.2463 57.4061,46.7188 L57.4061,59.1875 L56.5154,59.1875 L56.5154,49.3906 C56.5154,48.9182 56.3278,48.4651 55.9937,48.1311 C55.6597,47.797 55.2066,47.6094 54.7342,47.6094 L52.9529,47.6094 C52.4805,47.6094 52.0275,47.797 51.6934,48.1311 C51.3594,48.4651 51.1717,48.9182 51.1717,49.3906 L51.1717,59.1875 C50.9356,59.1873 50.7092,59.0934 50.5422,58.9264 C50.3752,58.7594 50.2813,58.533 50.2811,58.2969 L50.2811,44.0469 C50.2811,43.8107 50.1872,43.5841 50.0202,43.4171 C49.8532,43.2501 49.6267,43.1562 49.3904,43.1562 C49.1542,43.1562 48.9277,43.2501 48.7607,43.4171 C48.5937,43.5841 48.4998,43.8107 48.4998,44.0469 L48.4998,58.2969 C48.5006,59.0053 48.7823,59.6844 49.2832,60.1853 C49.7842,60.6862 50.4633,60.968 51.1717,60.9688 L70.7654,60.9688 C71.0016,60.9688 71.2282,60.8749 71.3952,60.7079 C71.5622,60.5409 71.6561,60.3143 71.6561,60.0781 C71.6561,59.8419 71.5622,59.6154 71.3952,59.4484 C71.2282,59.2813 71.0016,59.1875 70.7654,59.1875 Z M52.9529,59.1875 L52.9516,49.3906 L54.7342,49.3906 L54.7342,59.1875 L52.9529,59.1875 Z M59.1873,59.1875 L59.186,46.7188 L60.9686,46.7188 L60.9686,59.1875 L59.1873,59.1875 Z M65.4217,59.1875 L65.4204,52.0625 L67.2029,52.0625 L67.2029,59.1875 L65.4217,59.1875 Z M60.9685997,32.4688 C60.9685,32.3518 60.9916,32.236 61.0363,32.1279 C61.081,32.0198 61.1466,31.9216 61.2294,31.8389 C61.3121,31.7562 61.4103,31.6906 61.5183,31.6459 C61.6264,31.6011 61.7422,31.5781 61.8592,31.5781 L69.8748,31.5781 C70.111,31.5781 70.3376,31.672 70.5046,31.839 C70.6716,32.006 70.7654,32.2325 70.7654,32.4688 C70.7654,32.705 70.6716,32.9315 70.5046,33.0985 C70.3376,33.2655 70.111,33.3594 69.8748,33.3594 L61.8592,33.3594 C61.7422,33.3594 61.6264,33.3364 61.5183,33.2916 C61.4103,33.2469 61.3121,33.1813 61.2294,33.0986 C61.1466,33.0159 61.081,32.9177 61.0363,32.8096 C60.9916,32.7015 60.9685,32.5857 60.9685997,32.4688 Z M58.2967,32.4688 C58.2967,32.2926 58.3489,32.1204 58.4468,31.9739 C58.5447,31.8275 58.6838,31.7133 58.8465,31.6459 C59.0092,31.5785 59.1883,31.5609 59.3611,31.5952 C59.5338,31.6296 59.6925,31.7144 59.8171,31.839 C59.9416,31.9635 60.0265,32.1222 60.0608,32.295 C60.0952,32.4678 60.0776,32.6468 60.0101,32.8096 C59.9427,32.9723 59.8286,33.1114 59.6821,33.2093 C59.5357,33.3071 59.3635,33.3594 59.1873,33.3594 C58.9511,33.3594 58.7246,33.2655 58.5575,33.0985 C58.3905,32.9315 58.2967,32.705 58.2967,32.4688 Z M60.9685997,36.0312 C60.9685,35.9143 60.9916,35.7985 61.0363,35.6904 C61.081,35.5823 61.1466,35.4841 61.2294,35.4014 C61.3121,35.3187 61.4103,35.2531 61.5183,35.2084 C61.6264,35.1636 61.7422,35.1406 61.8592,35.1406 L69.8748,35.1406 C70.111,35.1406 70.3376,35.2345 70.5046,35.4015 C70.6716,35.5685 70.7654,35.795 70.7654,36.0312 C70.7654,36.2675 70.6716,36.494 70.5046,36.661 C70.3376,36.828 70.111,36.9219 69.8748,36.9219 L61.8592,36.9219 C61.7422,36.9219 61.6264,36.8989 61.5183,36.8541 C61.4103,36.8094 61.3121,36.7438 61.2294,36.6611 C61.1466,36.5784 61.081,36.4802 61.0363,36.3721 C60.9916,36.264 60.9685,36.1482 60.9685997,36.0312 Z M60.9685997,39.5938 C60.9685,39.4768 60.9916,39.361 61.0363,39.2529 C61.081,39.1448 61.1466,39.0466 61.2294,38.9639 C61.3121,38.8812 61.4103,38.8156 61.5183,38.7709 C61.6264,38.7261 61.7422,38.7031 61.8592,38.7031 L69.8748,38.7031 C70.111,38.7031 70.3376,38.797 70.5046,38.964 C70.6716,39.131 70.7654,39.3575 70.7654,39.5938 C70.7654,39.83 70.6716,40.0565 70.5046,40.2235 C70.3376,40.3905 70.111,40.4844 69.8748,40.4844 L61.8592,40.4844 C61.7422,40.4844 61.6264,40.4614 61.5183,40.4166 C61.4103,40.3719 61.3121,40.3063 61.2294,40.2236 C61.1466,40.1409 61.081,40.0427 61.0363,39.9346 C60.9916,39.8265 60.9685,39.7107 60.9685997,39.5938 Z M58.2967,36.0312 C58.2967,35.8551 58.3489,35.6829 58.4468,35.5364 C58.5447,35.39 58.6838,35.2758 58.8465,35.2084 C59.0092,35.141 59.1883,35.1234 59.3611,35.1577 C59.5338,35.1921 59.6925,35.2769 59.8171,35.4015 C59.9416,35.526 60.0265,35.6847 60.0608,35.8575 C60.0952,36.0303 60.0776,36.2093 60.0101,36.3721 C59.9427,36.5348 59.8286,36.6739 59.6821,36.7718 C59.5357,36.8696 59.3635,36.9219 59.1873,36.9219 C58.9511,36.9219 58.7246,36.828 58.5575,36.661 C58.3905,36.494 58.2967,36.2675 58.2967,36.0312 Z M58.2967,39.5938 C58.2967,39.4176 58.3489,39.2454 58.4468,39.0989 C58.5447,38.9525 58.6838,38.8383 58.8465,38.7709 C59.0092,38.7035 59.1883,38.6859 59.3611,38.7202 C59.5338,38.7546 59.6925,38.8394 59.8171,38.964 C59.9416,39.0885 60.0265,39.2472 60.0608,39.42 C60.0952,39.5928 60.0776,39.7718 60.0101,39.9346 C59.9427,40.0973 59.8286,40.2364 59.6821,40.3343 C59.5357,40.4321 59.3635,40.4844 59.1873,40.4844 C58.9511,40.4844 58.7246,40.3905 58.5575,40.2235 C58.3905,40.0565 58.2967,39.83 58.2967,39.5938 Z M72.5467,26.2344 L28.0154,26.2344 C27.3071,26.2351 26.6279,26.5169 26.127,27.0178 C25.6261,27.5187 25.3443,28.1979 25.3436,28.9062 L25.3436,40.5294 C24.6026,40.6332 23.9241,41.0013 23.4331,41.5658 C22.9421,42.1304 22.6717,42.8534 22.6717,43.6016 C22.6717,44.3498 22.9421,45.0728 23.4331,45.6373 C23.9241,46.2019 24.6026,46.57 25.3436,46.6737 L25.3436,50.8521 C24.1329,52.0143 23.1896,53.4261 22.5791,54.9894 C21.9686,56.5527 21.7056,58.2302 21.8083,59.9053 C21.911,61.5804 22.377,63.2132 23.1739,64.6902 C23.9707,66.1672 25.0795,67.4532 26.4231,68.4588 C27.7667,69.4645 29.313,70.1657 30.9548,70.5139 C32.5966,70.8621 34.2945,70.8489 35.9306,70.4752 C37.5668,70.1015 39.102,69.3763 40.4298,68.3499 C41.7577,67.3235 42.8463,66.0205 43.6201,64.5312 L72.5467,64.5312 C73.2551,64.5305 73.9342,64.2487 74.4351,63.7478 C74.936,63.2469 75.2178,62.5678 75.2186,61.8594 L75.2186,28.9062 C75.2178,28.1979 74.936,27.5187 74.4351,27.0178 C73.9342,26.5169 73.2551,26.2351 72.5467,26.2344 Z M24.4529,43.6016 C24.4529,43.3373 24.5313,43.0791 24.6781,42.8594 C24.8249,42.6397 25.0335,42.4684 25.2776,42.3673 C25.5218,42.2662 25.7904,42.2397 26.0495,42.2913 C26.3087,42.3428 26.5467,42.4701 26.7335,42.6569 C26.9204,42.8437 27.0476,43.0818 27.0992,43.3409 C27.1507,43.6001 27.1242,43.8687 27.0231,44.1128 C26.922,44.3569 26.7508,44.5656 26.5311,44.7124 C26.3114,44.8591 26.0531,44.9375 25.7889,44.9375 C25.4347,44.9371 25.0951,44.7962 24.8447,44.5458 C24.5942,44.2953 24.4533,43.9558 24.4529,43.6016 Z M32.4686,49.4357 L32.4686,58.6552 L24.3481,63.0277 C23.742,61.6077 23.4804,60.0645 23.5847,58.5241 C23.6889,56.9836 24.156,55.4897 24.9479,54.1643 C25.7397,52.8389 26.8339,51.7196 28.1409,50.8978 C29.448,50.076 30.9309,49.575 32.4686,49.4357 Z M34.2498,49.4357 C36.5287,49.6467 38.662,50.6481 40.2803,52.2664 C41.8986,53.8847 42.9,56.018 43.111,58.2969 L34.2498,58.2969 L34.2498,49.4357 Z M33.3592,68.9844 C31.742,68.9835 30.1502,68.5821 28.7259,67.816 C27.3017,67.05 26.0893,65.9432 25.1971,64.5944 L33.5844,60.0781 L43.111,60.0781 C42.8866,62.5105 41.7626,64.7716 39.959,66.4188 C38.1553,68.0661 35.8019,68.981 33.3592,68.9844 Z M73.4373,61.8594 C73.4373,62.0955 73.3432,62.3219 73.1762,62.4889 C73.0092,62.6559 72.7828,62.75 72.5467,62.75 L44.3707,62.75 C45.1096,60.4813 45.1284,58.0395 44.4246,55.7596 C43.7207,53.4798 42.3287,51.4736 40.4394,50.0162 C38.5502,48.5589 36.2563,47.7218 33.8725,47.6199 C31.4886,47.5179 29.1316,48.156 27.1248,49.4467 L27.1248,46.4061 C27.6563,46.1545 28.1056,45.7576 28.4209,45.2613 C28.7361,44.765 28.9043,44.1895 28.9061,43.6016 C28.9034,43.1346 28.7946,42.6743 28.5879,42.2555 L33.0946,38.2494 C33.5119,38.5005 33.9822,38.6504 34.4678,38.6873 C34.9535,38.7242 35.441,38.6469 35.8914,38.4617 L39.8162,41.5605 C39.6266,42.0358 39.5571,42.5505 39.6137,43.059 C39.6702,43.5676 39.8513,44.0544 40.1407,44.4764 C40.4301,44.8984 40.819,45.2427 41.273,45.4787 C41.7271,45.7147 42.2323,45.8352 42.7439,45.8296 C43.2556,45.824 43.758,45.6924 44.2068,45.4466 C44.6556,45.2007 45.0369,44.848 45.317,44.4198 C45.5971,43.9915 45.7674,43.5009 45.8128,42.9912 C45.8583,42.4815 45.7775,41.9685 45.5776,41.4974 L50.7259,37.2444 C51.3389,37.6697 52.0845,37.8602 52.8264,37.7811 C53.5683,37.702 54.2569,37.3586 54.7665,36.8136 C55.276,36.2687 55.5725,35.5586 55.6017,34.8131 C55.6309,34.0676 55.3908,33.3364 54.9254,32.7533 C54.46,32.1702 53.8003,31.774 53.0669,31.6372 C52.3334,31.5004 51.5753,31.632 50.9309,32.0081 C50.2865,32.3842 49.799,32.9795 49.5574,33.6854 C49.3158,34.3913 49.3363,35.1605 49.6151,35.8526 L44.4452,40.1233 C43.9223,39.7749 43.3064,39.5925 42.6781,39.6001 C42.0498,39.6077 41.4385,39.8049 40.9242,40.1658 L37.2974,37.3025 C37.5998,36.8482 37.7775,36.3226 37.8129,35.7781 C37.8483,35.2336 37.7401,34.6894 37.4991,34.1998 C37.2582,33.7103 36.8929,33.2926 36.4398,32.9885 C35.9867,32.6845 35.4617,32.5047 34.9174,32.4673 C34.373,32.4298 33.8284,32.5359 33.3379,32.7751 C32.8474,33.0142 32.4284,33.3779 32.1226,33.8298 C31.8169,34.2817 31.6351,34.806 31.5956,35.3502 C31.5561,35.8945 31.6602,36.4395 31.8974,36.9309 L27.3874,40.9397 C27.3022,40.8883 27.2151,40.8403 27.1248,40.797 L27.1248,28.9062 C27.1248,28.6701 27.219,28.4437 27.3859,28.2767 C27.5529,28.1098 27.7793,28.0156 28.0154,28.0156 L72.5467,28.0156 C72.7828,28.0156 73.0092,28.1098 73.1762,28.2767 C73.3432,28.4437 73.4373,28.6701 73.4373,28.9062 L73.4373,61.8594 Z M35.6398,36.5306 C35.453,36.7174 35.2149,36.8447 34.9558,36.8962 C34.6966,36.9478 34.428,36.9213 34.1839,36.8202 C33.9398,36.7191 33.7311,36.5478 33.5844,36.3281 C33.4376,36.1084 33.3592,35.8502 33.3592,35.5859 C33.3592,35.3217 33.4376,35.0634 33.5844,34.8437 C33.7311,34.624 33.9398,34.4528 34.1839,34.3517 C34.428,34.2506 34.6966,34.2241 34.9558,34.2757 C35.2149,34.3272 35.453,34.4544 35.6398,34.6413 C35.89,34.892 36.0304,35.2317 36.0304,35.5859 C36.0304,35.9401 35.89,36.2799 35.6398,36.5306 Z M43.6554,43.6556 C43.4686,43.8424 43.2305,43.9697 42.9714,44.0212 C42.7122,44.0728 42.4436,44.0463 42.1995,43.9452 C41.9554,43.8441 41.7468,43.6728 41.6,43.4531 C41.4532,43.2334 41.3748,42.9752 41.3748,42.7109 C41.3748,42.4467 41.4532,42.1884 41.6,41.9687 C41.7468,41.749 41.9554,41.5778 42.1995,41.4767 C42.4436,41.3756 42.7122,41.3491 42.9714,41.4007 C43.2305,41.4522 43.4686,41.5794 43.6554,41.7663 C43.9056,42.017 44.0461,42.3567 44.0461,42.7109 C44.0461,43.0651 43.9056,43.4049 43.6554,43.6556 Z M51.563,33.7507 C51.7498,33.5638 51.9878,33.4366 52.247,33.385 C52.5061,33.3335 52.7748,33.36 53.0189,33.4611 C53.263,33.5622 53.4716,33.7334 53.6184,33.9531 C53.7652,34.1728 53.8436,34.4311 53.8436,34.6953 C53.8436,34.9595 53.7652,35.2178 53.6184,35.4375 C53.4716,35.6572 53.263,35.8284 53.0189,35.9296 C52.7748,36.0307 52.5061,36.0571 52.247,36.0056 C51.9878,35.954 51.7498,35.8268 51.563,35.64 C51.3128,35.3892 51.1723,35.0495 51.1723,34.6953 C51.1723,34.3411 51.3128,34.0014 51.563,33.7507 Z" id="Shape" fill="#FFFFFF"></path>
        </g>
    </g>
</svg>