<?xml version="1.0" encoding="UTF-8"?>
<svg width="100px" height="100px" viewBox="0 0 100 100" version="1.1" xmlns="http://www.w3.org/2000/svg" xmlns:xlink="http://www.w3.org/1999/xlink">
    <title>icon-showtimes</title>
    <g id="Page-1" stroke="none" stroke-width="1" fill="none" fill-rule="evenodd">
        <g id="icon-showtimes" transform="translate(1, 1)" fill-rule="nonzero">
            <circle id="Oval" stroke="#0029FF" stroke-width="2" cx="49" cy="49" r="49"></circle>
            <path d="M72.0246,58.1898 C72.0396,58.1594 72.0528,58.1283 72.0634,58.0964 C75.0851,51.1225 74.5451,42.5727 70.6206,36.0379 C72.7158,33.5332 69.9943,29.9465 67.0182,31.3343 C66.4952,30.7998 65.9461,30.2876 65.3771,29.8033 C66.494,26.767 62.7663,24.2762 60.4447,26.5447 C53.697,23.1374 45.3043,23.1806 38.5938,26.66 C36.2067,24.1303 32.1977,26.8427 33.643,30.0167 C32.8152,30.7405 32.0318,31.5224 31.3094,32.3492 C30.6856,33.0632 31.8156,34.0417 32.4351,33.3327 C33.1071,32.5636 33.8353,31.836 34.6044,31.1618 C36.0918,32.2345 38.2484,31.688 39.0644,30.0505 C41.7572,30.8256 44.3287,31.9381 46.7249,33.3658 C46.5243,34.0892 46.6062,34.8971 46.9504,35.5649 C44.9782,37.2685 43.2022,39.1956 41.6599,41.3076 C40.2362,40.8774 38.6668,41.5975 38.0476,42.9459 C34.9078,42.9627 31.7582,43.3004 28.6659,43.9541 C28.3928,43.4452 27.9789,43.0236 27.477,42.7412 C28.058,40.4755 28.9782,38.3203 30.2177,36.3275 C30.7116,35.5332 29.4649,34.7076 28.9484,35.5379 C27.6306,37.6566 26.6518,39.9477 26.0327,42.3562 C22.4521,42.417 21.851,47.3705 25.2597,48.3234 C25.2095,55.3732 28.2575,62.2272 33.543,66.8963 C32.4404,69.8747 36.0199,72.3314 38.3822,70.2306 C45.2761,73.8965 53.9889,73.897 60.8832,70.2318 C63.2858,72.608 67.1339,69.9534 65.7806,66.8471 C68.5046,64.4261 70.6208,61.4651 72.0246,58.1898 Z M71.0829,56.5182 C69.014,54.4627 66.7498,52.5981 64.3325,50.9612 C64.6758,49.8859 64.3774,48.6759 63.5757,47.8821 C65.6084,44.5023 67.2042,40.8782 68.3275,37.0924 C68.7018,37.0937 69.0617,37.0247 69.3932,36.8997 C72.8352,42.7129 73.4648,50.2079 71.0829,56.5182 Z M36.6893,64.9674 C36.0603,58.8062 37.1641,52.6596 39.8959,47.1049 C41.5931,47.6344 43.4274,46.5184 43.757,44.7763 C48.9106,45.4116 53.8742,46.9247 58.5322,49.281 C58.3082,50.1518 58.4937,51.112 59.0273,51.8364 C53.7768,58.4883 46.8461,63.4937 38.9139,66.3624 C38.4333,65.6014 37.625,65.0689 36.6893,64.9674 Z M59.9316,50.0384 C59.9316,49.1915 60.6156,48.5024 61.4564,48.5024 C63.4792,48.5866 63.4786,51.4905 61.4564,51.5744 C60.6156,51.5744 59.9316,50.8854 59.9316,50.0384 Z M69.8589,34.0617 C69.8589,34.9087 69.1749,35.5977 68.3341,35.5977 C66.3112,35.5135 66.3117,32.6096 68.3341,32.5257 C69.1749,32.5257 69.8589,33.2147 69.8589,34.0617 Z M65.876,32.3046 C64.843,33.7561 65.3224,35.8543 66.8798,36.717 C65.7917,40.3688 64.2491,43.8645 62.2865,47.1251 C61.8763,47.0071 61.4208,46.9778 60.999,47.0424 C58.9477,42.6621 55.9629,38.7166 52.3167,35.5651 C52.6613,34.8969 52.7434,34.0904 52.5425,33.366 C54.8504,31.991 57.3225,30.9073 59.9077,30.137 C60.7669,31.7959 63.0718,32.2642 64.5028,31.0224 C64.977,31.4304 65.4361,31.859 65.876,32.3046 Z M48.1088,34.1774 C48.1088,33.3304 48.7928,32.6414 49.6336,32.6414 C51.6565,32.7256 51.6559,35.6294 49.6336,35.7133 C48.7928,35.7133 48.1088,35.0243 48.1088,34.1774 Z M62.5656,27.1638 C63.4065,27.1638 64.0905,27.8528 64.0905,28.6998 C64.0066,30.7374 61.1244,30.7369 61.0408,28.6998 C61.0408,27.8528 61.7248,27.1638 62.5656,27.1638 Z M36.3623,30.2357 C35.5215,30.2357 34.8374,29.5466 34.8374,28.6997 C34.9213,26.6619 37.8036,26.6626 37.8872,28.6997 C37.8872,29.5466 37.2031,30.2357 36.3623,30.2357 Z M39.3791,28.5851 C39.3713,28.3776 39.3428,28.1756 39.2954,27.9807 C45.5521,24.7452 53.3683,24.6888 59.6732,27.8302 C59.5922,28.1011 59.5478,28.3877 59.5463,28.6843 C56.8271,29.4887 54.227,30.625 51.7996,32.0687 C50.6329,30.8618 48.6349,30.8614 47.4677,32.0686 C44.9382,30.564 42.2229,29.3945 39.3791,28.5851 Z M47.94,36.6852 C48.9507,37.375 50.3163,37.3751 51.3271,36.6852 C54.8082,39.691 57.66,43.4535 59.6243,47.6316 C59.4911,47.7339 59.3667,47.8472 59.2523,47.9699 C54.3414,45.479 49.1008,43.8953 43.6572,43.2581 C43.5102,42.8132 43.2635,42.4138 42.9432,42.0868 C44.4041,40.1022 46.0807,38.2896 47.94,36.6852 Z M40.7909,42.674 C41.6317,42.674 42.3158,43.363 42.3158,44.21 C42.2318,46.2477 39.3496,46.2471 39.266,44.21 C39.2661,43.363 39.9501,42.674 40.7909,42.674 Z M24.4806,45.3864 C24.4806,44.5395 25.1646,43.8504 26.0054,43.8504 C28.0282,43.9346 28.0276,46.8384 26.0054,46.9223 C25.1647,46.9224 24.4806,46.2334 24.4806,45.3864 Z M26.7544,48.3228 C26.7544,48.3228 29.0247,47.8277 29.0247,45.4062 C29.0247,45.4062 34.8501,44.475 37.7811,44.4423 C37.8361,45.1664 38.1453,45.8198 38.6196,46.3129 C35.7068,52.1727 34.532,58.6695 35.2083,65.1797 C34.9171,65.3011 34.649,65.467 34.412,65.6687 C29.5358,61.3004 26.7544,53.9814 26.7544,48.3228 Z M36.3623,69.5159 C35.5215,69.5159 34.8374,68.8269 34.8374,67.9799 C34.8374,67.133 35.5215,66.444 36.3623,66.444 C37.1918,66.444 37.8872,67.1625 37.8872,67.9799 C37.8872,68.8269 37.2031,69.5159 36.3623,69.5159 Z M49.6336,71.4968 C46.0061,71.4968 42.4189,70.628 39.2128,68.9786 C39.3429,68.6056 39.4003,68.1806 39.375,67.7848 C47.5804,64.8271 54.7507,59.6583 60.1825,52.7854 C60.6288,52.9947 61.124,53.0908 61.616,53.065 C61.948,54.2974 62.2104,55.5547 62.3964,56.812 C62.5388,57.7745 64.018,57.5594 63.8751,56.5933 C63.6777,55.2584 63.3982,53.9232 63.0433,52.6155 C63.222,52.5043 63.388,52.3746 63.5393,52.2296 C66.0335,53.9229 68.3588,55.8667 70.4654,58.0179 C69.159,60.906 67.2574,63.5211 64.8415,65.6819 C64.6026,65.5025 64.3363,65.3582 64.0503,65.2556 C64.1972,63.8661 64.2612,62.4631 64.2397,61.0755 C64.2245,60.0991 62.7298,60.122 62.7451,61.0986 C62.7658,62.4324 62.704,63.7811 62.5621,65.1167 C60.7993,65.3971 59.6464,67.2249 60.1321,68.938 C56.9059,70.6136 53.2909,71.4968 49.6336,71.4968 Z M63.0363,69.6459 C62.1955,69.6459 61.5114,68.9569 61.5114,68.1099 C61.5953,66.0721 64.4776,66.0728 64.5612,68.1099 C64.5612,68.9569 63.8771,69.6459 63.0363,69.6459 Z" id="Shape" fill="#FFFFFF"></path>
        </g>
    </g>
</svg>