<?xml version="1.0" encoding="UTF-8"?>
<svg width="100px" height="100px" viewBox="0 0 100 100" version="1.1" xmlns="http://www.w3.org/2000/svg" xmlns:xlink="http://www.w3.org/1999/xlink">
    <title>icon-usability</title>
    <g id="Page-1" stroke="none" stroke-width="1" fill="none" fill-rule="evenodd">
        <g id="icon-usability" transform="translate(1, 1)" fill-rule="nonzero">
            <circle id="Oval" stroke="#0029FF" stroke-width="2" cx="49" cy="49" r="49"></circle>
            <g id="Group" transform="translate(33.1479, 21)" fill="#FFFFFF">
                <path d="M6.5545,24.7482 L13.2234,24.7482 C13.6682,24.7482 14.0288,24.3877 14.0288,23.9427 C14.0288,23.4978 13.6682,23.1373 13.2234,23.1373 L6.5545,23.1373 C6.1097,23.1373 5.7491,23.4978 5.7491,23.9427 C5.7491,24.3877 6.1097,24.7482 6.5545,24.7482 Z" id="Path"></path>
                <path d="M14.0288,27.6865 C14.0288,27.2417 13.6682,26.881 13.2234,26.881 L6.5545,26.881 C6.1097,26.881 5.7491,27.2415 5.7491,27.6865 C5.7491,28.1314 6.1097,28.4919 6.5545,28.4919 L13.2234,28.4919 C13.6682,28.4918 14.0288,28.1313 14.0288,27.6865 Z" id="Path"></path>
                <path d="M40.7042,36.4402 C40.7042,35.9954 40.3435,35.6347 39.8987,35.6347 C39.4538,35.6347 39.0932,35.9954 39.0932,36.4402 L39.0933,42.7166 C39.0933,43.5896 38.6906,44.3903 37.9886,44.9129 C37.4742,45.2956 37.167,45.9032 37.167,46.538 L37.167,53.1824 C37.167,53.2964 37.0743,53.3892 36.9606,53.3892 L23.9122,53.3834 C23.7981,53.3834 23.7054,53.2906 23.7054,53.1766 L23.7054,48.8276 C23.7054,48.4501 23.4429,48.1231 23.0742,48.0413 L20.3229,47.4318 C18.6151,47.0536 17.4224,45.5676 17.4224,43.8185 C17.4224,43.1442 17.1937,42.4803 16.7783,41.9492 L11.2862,34.9264 C11.1687,34.7761 11.3464,34.5643 11.4609,34.4693 C12.1278,33.9506 12.9565,33.7221 13.7955,33.824 C14.6372,33.9271 15.3887,34.3517 15.9111,35.0196 L18.8483,38.7756 C19.0009,38.9708 19.2349,39.0849 19.4827,39.0849 L19.5229,39.0849 C19.9674,39.0849 20.3279,38.7248 20.3284,38.2802 L20.3477,17.6976 C20.3477,17.0555 20.8701,16.5332 21.5121,16.5332 L22.591,16.5332 C23.2719,16.5332 23.8259,17.0873 23.8259,17.7681 L23.8259,28.7743 C23.8259,29.2192 24.1865,29.5798 24.6313,29.5798 C25.0762,29.5798 25.4368,29.2193 25.4368,28.7743 C25.4368,28.1022 25.9837,27.5554 26.6557,27.5554 L27.696,27.5554 C28.2257,27.5554 28.6916,27.8933 28.8553,28.396 C28.9776,28.7721 29.3253,29.0247 29.7204,29.0247 C30.1153,29.0247 30.463,28.7721 30.5853,28.3963 C30.7491,27.8934 31.215,27.5554 31.7447,27.5554 L32.7851,27.5554 C33.4572,27.5554 34.004,28.1022 34.004,28.7743 L34.004,29.4878 C34.004,29.913 34.2934,30.2763 34.7078,30.3716 C35.1218,30.4665 35.5406,30.2661 35.7259,29.8838 L35.7362,29.8625 C35.9874,29.3441 36.1265,29.0572 36.8487,29.0286 L37.8741,29.0286 C38.5462,29.0286 39.093,29.5754 39.093,30.2475 L39.093,32.6813 C39.093,33.1261 39.4536,33.4867 39.8985,33.4867 C40.3433,33.4867 40.7042,33.1261 40.7042,32.6813 L40.7042,30.2475 C40.7042,28.6872 39.4345,27.4178 37.8742,27.4178 L36.8338,27.4178 C36.8245,27.4178 36.815,27.418 36.8057,27.4184 C36.2242,27.4386 35.7794,27.5795 35.4343,27.7796 C35.0309,26.7086 33.9954,25.9446 32.785,25.9446 L31.7446,25.9446 C31.5749,25.9446 31.4083,25.9604 31.2455,25.9893 L31.2455,2.9487 C31.2459,1.3228 29.9231,0 28.2971,0 L2.9488,0 C1.3228,0 -7.10542736e-15,1.3228 -7.10542736e-15,2.9487 L-7.10542736e-15,48.2572 C-7.10542736e-15,49.8832 1.3228,51.206 2.9488,51.206 L22.0947,51.206 L22.0947,53.1765 C22.0947,54.1788 22.91,54.9941 23.9119,54.9941 L36.9604,55 C37.9626,55 38.7779,54.1847 38.7779,53.1824 L38.7779,46.538 C38.7779,46.408 38.8408,46.2867 38.9505,46.2049 C40.0486,45.3875 40.7042,44.0834 40.7042,42.7166 L40.7042,36.4402 Z M22.5911,14.9225 L21.5122,14.9225 C19.982,14.9225 18.737,16.1675 18.737,17.6971 L18.7357,19.1112 L7.0046,19.1112 C6.7381,19.1112 6.5213,18.8944 6.5213,18.6279 L6.5213,12.8933 C6.5213,12.6268 6.7381,12.41 7.0046,12.41 L24.5678,12.41 C24.8343,12.41 25.051,12.6268 25.051,12.8933 L25.051,16.3402 C24.5574,15.4932 23.64,14.9225 22.5911,14.9225 Z M2.9488,49.5954 C2.2111,49.5954 1.6108,48.9951 1.6108,48.2573 L1.6108,43.2174 L11.4036,43.2174 C11.8485,43.2174 12.2091,42.8569 12.2091,42.412 C12.2091,41.967 11.8485,41.6065 11.4036,41.6065 L1.6108,41.6065 L1.6108,7.8414 L8.007,7.8414 C8.4518,7.8414 8.8124,7.4809 8.8124,7.0359 C8.8124,6.591 8.4518,6.2305 8.007,6.2305 L1.6108,6.2305 L1.6108,2.9487 C1.6108,2.211 2.211,1.6108 2.9488,1.6108 L28.2971,1.6108 C29.0349,1.6108 29.6351,2.211 29.6351,2.9487 L29.6351,6.2306 L11.771,6.2306 C11.3262,6.2306 10.9656,6.5911 10.9656,7.036 C10.9656,7.481 11.3262,7.8415 11.771,7.8415 L29.6351,7.8415 L29.6351,26.7113 C29.1228,26.2297 28.4363,25.9449 27.6961,25.9449 L26.6558,25.9449 C26.2197,25.9449 25.8062,26.0441 25.4369,26.221 L25.4369,20.5325 C25.4428,20.5299 25.4488,20.528 25.4546,20.5252 C26.1879,20.1821 26.6617,19.4372 26.6617,18.6279 L26.6617,12.8933 C26.6617,11.7386 25.7223,10.7992 24.5676,10.7992 L7.0046,10.7992 C5.8499,10.7992 4.9105,11.7386 4.9105,12.8933 L4.9105,18.6279 C4.9105,19.7826 5.8499,20.722 7.0046,20.722 L18.7342,20.722 L18.7199,35.9964 L17.1801,34.0275 C16.3926,33.0205 15.2602,32.3805 13.9913,32.2253 C12.7223,32.0707 11.4691,32.4183 10.4621,33.2058 C10.4581,33.2088 10.4543,33.2121 10.4505,33.2152 C9.5624,33.9364 9.3764,35.0987 10.0177,35.9188 L15.5097,42.9416 C15.7046,43.1908 15.8119,43.5021 15.8119,43.8185 C15.8119,46.329 17.5238,48.4616 19.9748,49.0045 L22.0948,49.4742 L22.0948,49.5954 L2.9488,49.5954 Z" id="Shape"></path>
            </g>
        </g>
    </g>
</svg>