
<svg width="25px" height="25px" viewBox="0 0 25 25" version="1.1" xmlns="http://www.w3.org/2000/svg" xmlns:xlink="http://www.w3.org/1999/xlink">
	<g stroke="none" stroke-width="1" fill="none" fill-rule="evenodd">
		<g transform="translate(-684, -365)" fill="currentColor">
			<g transform="translate(539, 365)">
				<path d="M166.945605,0 C168.631396,0 170,1.36865234 170,3.05439453 L170,21.9456055 C170,23.6313477 168.631348,25 166.945605,25 L148.054395,25 C146.368652,25 145,23.6313477 145,21.9456055 L145,3.05439453 C145,1.36865234 146.368604,0 148.054395,0 L166.945605,0 L166.945605,0 Z M152.83501,20.6678711 L152.83501,9.6465332 L149.170947,9.6465332 L149.170947,20.6678711 L152.83501,20.6678711 Z M166.044922,20.6678711 L166.044922,14.3476074 C166.044922,10.962207 164.237402,9.38735352 161.8271,9.38735352 C159.883545,9.38735352 159.012939,10.45625 158.525488,11.2069824 L158.525488,9.6465332 L154.862354,9.6465332 C154.910937,10.6807617 154.862354,20.6678711 154.862354,20.6678711 L158.525439,20.6678711 L158.525439,14.512793 C158.525439,14.1833008 158.54917,13.8540039 158.64624,13.6185059 C158.910596,12.9605469 159.51377,12.2789551 160.52583,12.2789551 C161.850781,12.2789551 162.381641,13.2900391 162.381641,14.7709961 L162.381641,20.6678711 L166.044922,20.6678711 L166.044922,20.6678711 Z M151.027734,4.33212891 C149.774121,4.33212891 148.955078,5.15629883 148.955078,6.23652344 C148.955078,7.29404297 149.749219,8.14091797 150.979248,8.14091797 L151.002881,8.14091797 C152.280469,8.14091797 153.075732,7.29404297 153.075732,6.23652344 C153.052051,5.1578125 152.282715,4.33447266 151.027734,4.33212891 L151.027734,4.33212891 Z"></path>
			</g>
		</g>
	</g>
</svg>
